<svg xmlns="http://www.w3.org/2000/svg" xmlns:xlink="http://www.w3.org/1999/xlink" width="500" zoomAndPan="magnify" viewBox="0 0 375 374.999991" height="500" preserveAspectRatio="xMidYMid meet" version="1.0"><defs><g/><clipPath id="bc75995f46"><path d="M 319 168 L 329 168 L 329 176 L 319 176 Z M 319 168 " clip-rule="nonzero"/></clipPath><clipPath id="20f0a68db6"><path d="M 324.957031 142.617188 L 351.796875 161.816406 L 336.957031 182.554688 L 310.121094 163.355469 Z M 324.957031 142.617188 " clip-rule="nonzero"/></clipPath><clipPath id="613491bca4"><path d="M 324.957031 142.617188 L 351.796875 161.816406 L 336.957031 182.554688 L 310.121094 163.355469 Z M 324.957031 142.617188 " clip-rule="nonzero"/></clipPath><clipPath id="c19ac65f2e"><path d="M 321.535156 166.75 L 329.828125 172.679688 L 327.566406 175.835938 L 319.277344 169.90625 Z M 321.535156 166.75 " clip-rule="nonzero"/></clipPath><clipPath id="d07201e6ba"><path d="M 321.535156 166.75 L 329.828125 172.679688 L 327.578125 175.824219 L 319.289062 169.890625 Z M 321.535156 166.75 " clip-rule="nonzero"/></clipPath><clipPath id="cdaeca124c"><path d="M 320 162 L 334 162 L 334 173 L 320 173 Z M 320 162 " clip-rule="nonzero"/></clipPath><clipPath id="ac0c9023f1"><path d="M 324.957031 142.617188 L 351.796875 161.816406 L 336.957031 182.554688 L 310.121094 163.355469 Z M 324.957031 142.617188 " clip-rule="nonzero"/></clipPath><clipPath id="550b50e968"><path d="M 324.957031 142.617188 L 351.796875 161.816406 L 336.957031 182.554688 L 310.121094 163.355469 Z M 324.957031 142.617188 " clip-rule="nonzero"/></clipPath><clipPath id="a31654e4cb"><path d="M 321 156 L 339 156 L 339 171 L 321 171 Z M 321 156 " clip-rule="nonzero"/></clipPath><clipPath id="9a98a6139f"><path d="M 324.957031 142.617188 L 351.796875 161.816406 L 336.957031 182.554688 L 310.121094 163.355469 Z M 324.957031 142.617188 " clip-rule="nonzero"/></clipPath><clipPath id="339374d33b"><path d="M 324.957031 142.617188 L 351.796875 161.816406 L 336.957031 182.554688 L 310.121094 163.355469 Z M 324.957031 142.617188 " clip-rule="nonzero"/></clipPath><clipPath id="1cc4bc5bc7"><path d="M 321 151 L 345 151 L 345 169 L 321 169 Z M 321 151 " clip-rule="nonzero"/></clipPath><clipPath id="8f21d6cd5e"><path d="M 324.957031 142.617188 L 351.796875 161.816406 L 336.957031 182.554688 L 310.121094 163.355469 Z M 324.957031 142.617188 " clip-rule="nonzero"/></clipPath><clipPath id="58d854270e"><path d="M 324.957031 142.617188 L 351.796875 161.816406 L 336.957031 182.554688 L 310.121094 163.355469 Z M 324.957031 142.617188 " clip-rule="nonzero"/></clipPath><clipPath id="ff7929d68a"><path d="M 322 145 L 350 145 L 350 167 L 322 167 Z M 322 145 " clip-rule="nonzero"/></clipPath><clipPath id="b6a1af7f9c"><path d="M 324.957031 142.617188 L 351.796875 161.816406 L 336.957031 182.554688 L 310.121094 163.355469 Z M 324.957031 142.617188 " clip-rule="nonzero"/></clipPath><clipPath id="ea794c51f9"><path d="M 324.957031 142.617188 L 351.796875 161.816406 L 336.957031 182.554688 L 310.121094 163.355469 Z M 324.957031 142.617188 " clip-rule="nonzero"/></clipPath></defs><rect x="-37.5" width="450" fill="#ffffff" y="-37.499999" height="449.999989" fill-opacity="1"/><rect x="-37.5" width="450" fill="#ffffff" y="-37.499999" height="449.999989" fill-opacity="1"/><rect x="-37.5" width="450" fill="#ffffff" y="-37.499999" height="449.999989" fill-opacity="1"/><g clip-path="url(#bc75995f46)"><g clip-path="url(#20f0a68db6)"><g clip-path="url(#613491bca4)"><g clip-path="url(#c19ac65f2e)"><g clip-path="url(#d07201e6ba)"><path fill="#000000" d="M 328.476562 172.789062 C 327.734375 171.597656 326.777344 170.582031 325.636719 169.769531 C 324.492188 168.953125 323.222656 168.382812 321.855469 168.070312 C 321.015625 167.878906 320.183594 168.398438 320 169.234375 C 319.8125 170.070312 320.339844 170.902344 321.175781 171.09375 C 322.136719 171.3125 323.035156 171.714844 323.839844 172.289062 C 324.644531 172.863281 325.316406 173.578125 325.839844 174.417969 C 326.292969 175.144531 327.25 175.371094 327.980469 174.921875 C 328.707031 174.472656 328.929688 173.519531 328.476562 172.789062 " fill-opacity="1" fill-rule="nonzero"/></g></g></g></g></g><g clip-path="url(#cdaeca124c)"><g clip-path="url(#ac0c9023f1)"><g clip-path="url(#550b50e968)"><path fill="#000000" d="M 333.617188 170.503906 C 332.363281 168.492188 330.75 166.769531 328.820312 165.386719 C 326.886719 164.003906 324.738281 163.03125 322.429688 162.492188 C 321.589844 162.296875 320.757812 162.816406 320.570312 163.652344 C 320.382812 164.488281 320.90625 165.320312 321.746094 165.515625 C 323.652344 165.960938 325.425781 166.765625 327.019531 167.90625 C 328.613281 169.046875 329.945312 170.46875 330.980469 172.132812 C 331.433594 172.859375 332.394531 173.089844 333.121094 172.640625 C 333.851562 172.191406 334.074219 171.234375 333.617188 170.503906 " fill-opacity="1" fill-rule="nonzero"/></g></g></g><g clip-path="url(#a31654e4cb)"><g clip-path="url(#9a98a6139f)"><g clip-path="url(#339374d33b)"><path fill="#000000" d="M 338.761719 168.21875 C 336.992188 165.382812 334.71875 162.957031 332 161.007812 C 329.285156 159.054688 326.253906 157.679688 323.003906 156.914062 C 322.164062 156.71875 321.332031 157.238281 321.140625 158.070312 C 320.953125 158.90625 321.476562 159.742188 322.3125 159.933594 C 325.164062 160.605469 327.816406 161.8125 330.199219 163.523438 C 332.582031 165.234375 334.574219 167.359375 336.125 169.847656 C 336.578125 170.578125 337.535156 170.804688 338.265625 170.355469 C 338.992188 169.90625 339.214844 168.949219 338.761719 168.21875 " fill-opacity="1" fill-rule="nonzero"/></g></g></g><g clip-path="url(#1cc4bc5bc7)"><g clip-path="url(#8f21d6cd5e)"><g clip-path="url(#58d854270e)"><path fill="#000000" d="M 343.902344 165.9375 C 341.625 162.273438 338.691406 159.144531 335.183594 156.625 C 331.679688 154.109375 327.773438 152.328125 323.578125 151.335938 C 322.738281 151.140625 321.90625 151.65625 321.714844 152.492188 C 321.523438 153.324219 322.042969 154.160156 322.878906 154.355469 C 326.675781 155.253906 330.210938 156.863281 333.378906 159.140625 C 336.550781 161.417969 339.203125 164.25 341.265625 167.5625 C 341.71875 168.292969 342.679688 168.519531 343.40625 168.070312 C 344.136719 167.621094 344.359375 166.664062 343.902344 165.9375 " fill-opacity="1" fill-rule="nonzero"/></g></g></g><g clip-path="url(#ff7929d68a)"><g clip-path="url(#b6a1af7f9c)"><g clip-path="url(#ea794c51f9)"><path fill="#000000" d="M 349.046875 163.652344 C 346.253906 159.167969 342.660156 155.328125 338.367188 152.246094 C 334.074219 149.160156 329.289062 146.976562 324.152344 145.761719 C 323.316406 145.5625 322.480469 146.078125 322.285156 146.910156 C 322.09375 147.742188 322.613281 148.582031 323.449219 148.777344 C 328.191406 149.902344 332.601562 151.914062 336.558594 154.757812 C 340.519531 157.605469 343.832031 161.144531 346.410156 165.277344 C 346.863281 166.007812 347.820312 166.234375 348.550781 165.785156 C 349.277344 165.335938 349.5 164.378906 349.046875 163.652344 " fill-opacity="1" fill-rule="nonzero"/></g></g></g><g fill="#ffffff" fill-opacity="0.4"><g transform="translate(60.139727, 213.336612)"><g><path d="M 27.3125 -40.953125 C 28.164062 -40.953125 28.828125 -40.816406 29.296875 -40.546875 C 29.773438 -40.285156 30.015625 -39.910156 30.015625 -39.421875 C 30.015625 -39.210938 29.953125 -38.945312 29.828125 -38.625 C 29.703125 -38.332031 29.523438 -38.070312 29.296875 -37.84375 C 29.078125 -37.625 28.875 -37.460938 28.6875 -37.359375 C 28.5 -37.253906 28.367188 -37.160156 28.296875 -37.078125 C 27.640625 -36.710938 27.101562 -36.300781 26.6875 -35.84375 C 26.28125 -35.394531 25.929688 -34.703125 25.640625 -33.765625 L 18.203125 -7.25 C 18.035156 -6.71875 17.953125 -6.207031 17.953125 -5.71875 C 17.953125 -5.226562 18.023438 -4.816406 18.171875 -4.484375 C 18.316406 -4.160156 18.53125 -3.8125 18.8125 -3.4375 C 19.1875 -2.90625 19.375 -2.476562 19.375 -2.15625 C 19.375 -2.070312 19.332031 -1.863281 19.25 -1.53125 C 19.082031 -0.957031 18.710938 -0.554688 18.140625 -0.328125 C 17.566406 -0.109375 16.707031 0 15.5625 0 L 1.109375 0 C 0.242188 0 -0.421875 -0.140625 -0.890625 -0.421875 C -1.359375 -0.710938 -1.59375 -1.101562 -1.59375 -1.59375 C -1.59375 -1.84375 -1.535156 -2.113281 -1.421875 -2.40625 C -1.253906 -2.851562 -0.984375 -3.195312 -0.609375 -3.4375 C -0.242188 -3.6875 -0.0195312 -3.832031 0.0625 -3.875 C 0.71875 -4.28125 1.25 -4.695312 1.65625 -5.125 C 2.070312 -5.5625 2.421875 -6.269531 2.703125 -7.25 L 10.203125 -33.765625 C 10.367188 -34.296875 10.453125 -34.804688 10.453125 -35.296875 C 10.453125 -35.753906 10.378906 -36.132812 10.234375 -36.4375 C 10.097656 -36.75 9.90625 -37.109375 9.65625 -37.515625 C 9.289062 -38.046875 9.109375 -38.476562 9.109375 -38.8125 C 9.109375 -38.925781 9.144531 -39.148438 9.21875 -39.484375 C 9.382812 -40.015625 9.742188 -40.390625 10.296875 -40.609375 C 10.847656 -40.835938 11.703125 -40.953125 12.859375 -40.953125 Z M 27.3125 -40.953125 "/></g></g></g><g fill="#ffffff" fill-opacity="0.4"><g transform="translate(84.982927, 213.336612)"><g><path d="M 38.0625 -8.484375 C 37.988281 -8.316406 37.953125 -8.070312 37.953125 -7.75 C 37.953125 -7.457031 38.019531 -7.226562 38.15625 -7.0625 C 38.300781 -6.90625 38.5 -6.828125 38.75 -6.828125 C 39.238281 -6.828125 39.65625 -7.039062 40 -7.46875 C 40.351562 -7.90625 40.59375 -8.125 40.71875 -8.125 C 40.914062 -8.125 41.078125 -7.988281 41.203125 -7.71875 C 41.328125 -7.445312 41.390625 -7.128906 41.390625 -6.765625 C 41.429688 -5.578125 41.039062 -4.414062 40.21875 -3.28125 C 39.394531 -2.15625 38.191406 -1.234375 36.609375 -0.515625 C 35.035156 0.191406 33.144531 0.546875 30.9375 0.546875 C 28.226562 0.546875 26.070312 -0.078125 24.46875 -1.328125 C 22.875 -2.578125 22.054688 -4.242188 22.015625 -6.328125 C 22.015625 -7.847656 22.382812 -9.550781 23.125 -11.4375 L 26.5 -20.296875 C 26.707031 -20.828125 26.8125 -21.257812 26.8125 -21.59375 C 26.8125 -22.125 26.632812 -22.539062 26.28125 -22.84375 C 25.9375 -23.15625 25.519531 -23.3125 25.03125 -23.3125 C 24.125 -23.3125 23.257812 -22.890625 22.4375 -22.046875 C 21.625 -21.203125 21.03125 -20.164062 20.65625 -18.9375 L 16.84375 -6.390625 C 16.6875 -5.941406 16.609375 -5.515625 16.609375 -5.109375 C 16.609375 -4.609375 16.707031 -4.203125 16.90625 -3.890625 C 17.113281 -3.585938 17.40625 -3.273438 17.78125 -2.953125 C 18.0625 -2.703125 18.265625 -2.472656 18.390625 -2.265625 C 18.515625 -2.066406 18.535156 -1.820312 18.453125 -1.53125 C 18.285156 -1 17.894531 -0.609375 17.28125 -0.359375 C 16.664062 -0.117188 15.703125 0 14.390625 0 L 0.375 0 C -0.695312 0 -1.46875 -0.171875 -1.9375 -0.515625 C -2.40625 -0.867188 -2.578125 -1.332031 -2.453125 -1.90625 C -2.296875 -2.394531 -1.867188 -2.828125 -1.171875 -3.203125 C -0.554688 -3.523438 -0.046875 -3.910156 0.359375 -4.359375 C 0.773438 -4.816406 1.128906 -5.535156 1.421875 -6.515625 L 6.890625 -24.296875 C 6.972656 -24.492188 7.015625 -24.78125 7.015625 -25.15625 C 7.015625 -25.601562 6.921875 -25.945312 6.734375 -26.1875 C 6.546875 -26.4375 6.25 -26.75 5.84375 -27.125 C 5.4375 -27.445312 5.148438 -27.726562 4.984375 -27.96875 C 4.816406 -28.21875 4.796875 -28.550781 4.921875 -28.96875 C 5.160156 -29.90625 6.445312 -30.734375 8.78125 -31.453125 C 11.125 -32.171875 13.566406 -32.53125 16.109375 -32.53125 C 18.160156 -32.53125 19.78125 -31.96875 20.96875 -30.84375 C 22.15625 -29.71875 22.691406 -28.148438 22.578125 -26.140625 C 24.253906 -28.554688 26.035156 -30.222656 27.921875 -31.140625 C 29.804688 -32.066406 31.859375 -32.53125 34.078125 -32.53125 C 36.578125 -32.53125 38.59375 -31.769531 40.125 -30.25 C 41.664062 -28.738281 42.4375 -26.773438 42.4375 -24.359375 C 42.4375 -23.085938 42.226562 -21.835938 41.8125 -20.609375 Z M 38.0625 -8.484375 "/></g></g></g><g fill="#ffffff" fill-opacity="0.4"><g transform="translate(129.011972, 213.336612)"><g><path d="M 49.265625 -40.953125 C 51.515625 -40.953125 52.640625 -40.03125 52.640625 -38.1875 C 52.640625 -37.613281 52.519531 -36.894531 52.28125 -36.03125 L 50.796875 -31.0625 C 50.347656 -29.539062 49.796875 -28.472656 49.140625 -27.859375 C 48.484375 -27.242188 47.539062 -26.9375 46.3125 -26.9375 C 45.28125 -26.9375 44.488281 -27.203125 43.9375 -27.734375 C 43.382812 -28.265625 42.863281 -29.109375 42.375 -30.265625 L 41.328125 -32.78125 C 41.003906 -33.5625 40.65625 -34.09375 40.28125 -34.375 C 39.914062 -34.664062 39.34375 -34.8125 38.5625 -34.8125 L 37.140625 -34.8125 L 29.328125 -7.3125 C 29.210938 -6.78125 29.15625 -6.3125 29.15625 -5.90625 C 29.15625 -5.414062 29.222656 -5.003906 29.359375 -4.671875 C 29.503906 -4.347656 29.722656 -4 30.015625 -3.625 C 30.378906 -3.050781 30.5625 -2.582031 30.5625 -2.21875 C 30.5625 -2.132812 30.519531 -1.925781 30.4375 -1.59375 C 30.238281 -1.0625 29.835938 -0.671875 29.234375 -0.421875 C 28.640625 -0.179688 27.789062 -0.0625 26.6875 -0.0625 L 12.234375 -0.0625 C 11.378906 -0.0625 10.710938 -0.203125 10.234375 -0.484375 C 9.765625 -0.773438 9.53125 -1.1875 9.53125 -1.71875 C 9.53125 -1.96875 9.59375 -2.210938 9.71875 -2.453125 C 9.882812 -2.828125 10.078125 -3.101562 10.296875 -3.28125 C 10.523438 -3.46875 10.863281 -3.707031 11.3125 -4 C 11.925781 -4.363281 12.4375 -4.769531 12.84375 -5.21875 C 13.257812 -5.675781 13.613281 -6.375 13.90625 -7.3125 L 21.640625 -34.8125 L 20.234375 -34.8125 C 19.328125 -34.8125 18.585938 -34.664062 18.015625 -34.375 C 17.441406 -34.09375 16.828125 -33.5625 16.171875 -32.78125 L 14.140625 -30.265625 C 13.203125 -29.148438 12.289062 -28.316406 11.40625 -27.765625 C 10.53125 -27.210938 9.578125 -26.9375 8.546875 -26.9375 C 7.609375 -26.9375 6.867188 -27.179688 6.328125 -27.671875 C 5.796875 -28.160156 5.53125 -28.835938 5.53125 -29.703125 C 5.53125 -30.109375 5.59375 -30.5625 5.71875 -31.0625 L 7.3125 -36.65625 C 7.644531 -37.800781 8.015625 -38.671875 8.421875 -39.265625 C 8.835938 -39.859375 9.421875 -40.285156 10.171875 -40.546875 C 10.929688 -40.816406 12.007812 -40.953125 13.40625 -40.953125 Z M 49.265625 -40.953125 "/></g></g></g><g fill="#ffffff" fill-opacity="0.4"><g transform="translate(175.685213, 213.336612)"><g><path d="M 23.796875 -32.53125 C 29.378906 -32.53125 33.488281 -31.398438 36.125 -29.140625 C 38.769531 -26.890625 40.09375 -23.941406 40.09375 -20.296875 C 40.09375 -19.066406 39.929688 -17.691406 39.609375 -16.171875 C 38.828125 -12.804688 37.367188 -9.863281 35.234375 -7.34375 C 33.109375 -4.820312 30.492188 -2.875 27.390625 -1.5 C 24.296875 -0.132812 20.945312 0.546875 17.34375 0.546875 C 11.644531 0.546875 7.429688 -0.585938 4.703125 -2.859375 C 1.972656 -5.128906 0.609375 -8.15625 0.609375 -11.9375 C 0.609375 -13.207031 0.773438 -14.617188 1.109375 -16.171875 C 1.890625 -19.367188 3.375 -22.207031 5.5625 -24.6875 C 7.757812 -27.164062 10.445312 -29.09375 13.625 -30.46875 C 16.800781 -31.84375 20.191406 -32.53125 23.796875 -32.53125 Z M 23.609375 -27.0625 C 22.753906 -27.0625 21.84375 -26.289062 20.875 -24.75 C 19.914062 -23.21875 18.78125 -20.316406 17.46875 -16.046875 C 16.15625 -11.785156 15.5 -8.796875 15.5 -7.078125 C 15.5 -6.171875 15.640625 -5.5625 15.921875 -5.25 C 16.210938 -4.945312 16.601562 -4.796875 17.09375 -4.796875 C 17.957031 -4.710938 18.847656 -5.445312 19.765625 -7 C 20.691406 -8.5625 21.851562 -11.597656 23.25 -16.109375 C 24.519531 -20.085938 25.15625 -22.976562 25.15625 -24.78125 C 25.15625 -25.644531 25.019531 -26.238281 24.75 -26.5625 C 24.488281 -26.894531 24.109375 -27.0625 23.609375 -27.0625 Z M 23.609375 -27.0625 "/></g></g></g><g fill="#ffffff" fill-opacity="0.4"><g transform="translate(216.024671, 213.336612)"><g><path d="M 36.53125 -8.484375 C 36.445312 -8.160156 36.40625 -7.914062 36.40625 -7.75 C 36.40625 -7.457031 36.476562 -7.226562 36.625 -7.0625 C 36.769531 -6.90625 36.960938 -6.828125 37.203125 -6.828125 C 37.703125 -6.828125 38.125 -7.039062 38.46875 -7.46875 C 38.8125 -7.90625 39.046875 -8.125 39.171875 -8.125 C 39.378906 -8.125 39.550781 -7.988281 39.6875 -7.71875 C 39.832031 -7.445312 39.90625 -7.128906 39.90625 -6.765625 C 39.945312 -5.617188 39.535156 -4.476562 38.671875 -3.34375 C 37.816406 -2.21875 36.609375 -1.285156 35.046875 -0.546875 C 33.492188 0.179688 31.753906 0.546875 29.828125 0.546875 C 27.410156 0.546875 25.484375 0.0546875 24.046875 -0.921875 C 22.609375 -1.910156 21.6875 -3.203125 21.28125 -4.796875 C 19.800781 -3.160156 18.171875 -1.921875 16.390625 -1.078125 C 14.609375 -0.234375 12.796875 0.1875 10.953125 0.1875 C 8.078125 0.1875 5.664062 -0.519531 3.71875 -1.9375 C 1.769531 -3.351562 0.796875 -5.332031 0.796875 -7.875 C 0.796875 -9.019531 1.003906 -10.207031 1.421875 -11.4375 L 5.34375 -24.296875 C 5.46875 -24.660156 5.53125 -24.96875 5.53125 -25.21875 C 5.53125 -25.664062 5.425781 -26.019531 5.21875 -26.28125 C 5.019531 -26.550781 4.71875 -26.832031 4.3125 -27.125 C 3.894531 -27.445312 3.601562 -27.726562 3.4375 -27.96875 C 3.28125 -28.21875 3.257812 -28.550781 3.375 -28.96875 C 3.625 -29.90625 4.914062 -30.734375 7.25 -31.453125 C 9.59375 -32.171875 12.035156 -32.53125 14.578125 -32.53125 C 16.953125 -32.53125 18.691406 -32.078125 19.796875 -31.171875 C 20.910156 -30.273438 21.46875 -29.046875 21.46875 -27.484375 C 21.46875 -26.546875 21.320312 -25.644531 21.03125 -24.78125 L 17.15625 -12 C 16.988281 -11.539062 16.90625 -11.109375 16.90625 -10.703125 C 16.90625 -10.128906 17.066406 -9.695312 17.390625 -9.40625 C 17.722656 -9.125 18.160156 -8.984375 18.703125 -8.984375 C 19.472656 -8.984375 20.101562 -9.207031 20.59375 -9.65625 C 21.09375 -10.101562 21.585938 -10.863281 22.078125 -11.9375 L 25.828125 -24.296875 C 25.953125 -24.660156 26.015625 -24.96875 26.015625 -25.21875 C 26.015625 -25.664062 25.910156 -26.019531 25.703125 -26.28125 C 25.503906 -26.550781 25.21875 -26.832031 24.84375 -27.125 C 24.4375 -27.445312 24.148438 -27.726562 23.984375 -27.96875 C 23.816406 -28.21875 23.796875 -28.550781 23.921875 -28.96875 C 24.128906 -29.90625 25.398438 -30.734375 27.734375 -31.453125 C 30.066406 -32.171875 32.507812 -32.53125 35.0625 -32.53125 C 37.4375 -32.53125 39.1875 -32.078125 40.3125 -31.171875 C 41.4375 -30.273438 42 -29.066406 42 -27.546875 C 42 -26.773438 41.835938 -25.851562 41.515625 -24.78125 Z M 36.53125 -8.484375 "/></g></g></g><g fill="#ffffff" fill-opacity="0.4"><g transform="translate(258.208912, 213.336612)"><g><path d="M 22.328125 -32.84375 C 24.828125 -32.84375 27.019531 -32.484375 28.90625 -31.765625 C 30.789062 -31.046875 32.253906 -30.0625 33.296875 -28.8125 C 34.347656 -27.5625 34.875 -26.175781 34.875 -24.65625 C 34.875 -23.019531 34.304688 -21.664062 33.171875 -20.59375 C 32.046875 -19.53125 30.519531 -19 28.59375 -19 C 26.625 -19 25.085938 -19.5 23.984375 -20.5 C 22.878906 -21.507812 22.328125 -22.875 22.328125 -24.59375 C 22.328125 -25.414062 22.445312 -26.28125 22.6875 -27.1875 C 20.96875 -26.726562 19.441406 -25.832031 18.109375 -24.5 C 16.773438 -23.175781 15.882812 -21.425781 15.4375 -19.25 C 15.1875 -18.019531 15.0625 -16.910156 15.0625 -15.921875 C 15.0625 -13.710938 15.675781 -12.03125 16.90625 -10.875 C 18.132812 -9.726562 19.898438 -9.15625 22.203125 -9.15625 C 23.515625 -9.15625 24.640625 -9.289062 25.578125 -9.5625 C 26.523438 -9.832031 27.488281 -10.191406 28.46875 -10.640625 C 29.289062 -11.046875 29.890625 -11.25 30.265625 -11.25 C 30.503906 -11.25 30.664062 -11.195312 30.75 -11.09375 C 30.832031 -11 30.875 -10.785156 30.875 -10.453125 C 30.914062 -8.929688 30.289062 -7.34375 29 -5.6875 C 27.707031 -4.03125 25.921875 -2.632812 23.640625 -1.5 C 21.367188 -0.375 18.816406 0.1875 15.984375 0.1875 C 13.035156 0.1875 10.421875 -0.351562 8.140625 -1.4375 C 5.867188 -2.53125 4.109375 -4.085938 2.859375 -6.109375 C 1.609375 -8.140625 0.984375 -10.507812 0.984375 -13.21875 C 0.984375 -14.488281 1.144531 -15.90625 1.46875 -17.46875 C 2.582031 -22.550781 5.035156 -26.382812 8.828125 -28.96875 C 12.617188 -31.550781 17.117188 -32.84375 22.328125 -32.84375 Z M 22.328125 -32.84375 "/></g></g></g><g fill="#ffffff" fill-opacity="0.4"><g transform="translate(291.53816, 213.336612)"><g><path d="M 37.703125 -8.484375 C 37.617188 -8.316406 37.578125 -8.070312 37.578125 -7.75 C 37.578125 -7.457031 37.644531 -7.226562 37.78125 -7.0625 C 37.925781 -6.90625 38.125 -6.828125 38.375 -6.828125 C 38.863281 -6.828125 39.28125 -7.039062 39.625 -7.46875 C 39.976562 -7.90625 40.21875 -8.125 40.34375 -8.125 C 40.550781 -8.125 40.710938 -7.988281 40.828125 -7.71875 C 40.953125 -7.445312 41.015625 -7.128906 41.015625 -6.765625 C 41.054688 -5.578125 40.664062 -4.414062 39.84375 -3.28125 C 39.03125 -2.15625 37.832031 -1.234375 36.25 -0.515625 C 34.675781 0.191406 32.78125 0.546875 30.5625 0.546875 C 27.851562 0.546875 25.695312 -0.078125 24.09375 -1.328125 C 22.5 -2.578125 21.679688 -4.242188 21.640625 -6.328125 C 21.640625 -7.847656 22.007812 -9.550781 22.75 -11.4375 L 26.140625 -20.296875 C 26.335938 -20.828125 26.4375 -21.257812 26.4375 -21.59375 C 26.4375 -22.125 26.265625 -22.539062 25.921875 -22.84375 C 25.578125 -23.15625 25.15625 -23.3125 24.65625 -23.3125 C 23.882812 -23.3125 23.097656 -22.953125 22.296875 -22.234375 C 21.492188 -21.515625 20.847656 -20.351562 20.359375 -18.75 L 20.359375 -18.875 L 16.484375 -6.390625 C 16.359375 -5.898438 16.296875 -5.472656 16.296875 -5.109375 C 16.296875 -4.578125 16.394531 -4.15625 16.59375 -3.84375 C 16.800781 -3.53125 17.09375 -3.234375 17.46875 -2.953125 C 17.75 -2.660156 17.953125 -2.421875 18.078125 -2.234375 C 18.203125 -2.054688 18.222656 -1.820312 18.140625 -1.53125 C 17.929688 -1 17.519531 -0.609375 16.90625 -0.359375 C 16.289062 -0.117188 15.347656 0 14.078125 0 L 0.0625 0 C -1 0 -1.773438 -0.171875 -2.265625 -0.515625 C -2.765625 -0.867188 -2.929688 -1.332031 -2.765625 -1.90625 C -2.597656 -2.394531 -2.164062 -2.828125 -1.46875 -3.203125 C -0.851562 -3.523438 -0.34375 -3.910156 0.0625 -4.359375 C 0.46875 -4.816406 0.816406 -5.535156 1.109375 -6.515625 L 10.453125 -37.203125 C 10.578125 -37.578125 10.640625 -37.882812 10.640625 -38.125 C 10.640625 -38.582031 10.523438 -38.953125 10.296875 -39.234375 C 10.078125 -39.523438 9.78125 -39.8125 9.40625 -40.09375 C 9 -40.425781 8.703125 -40.710938 8.515625 -40.953125 C 8.328125 -41.203125 8.296875 -41.53125 8.421875 -41.9375 C 8.671875 -42.882812 9.960938 -43.707031 12.296875 -44.40625 C 14.640625 -45.101562 17.082031 -45.453125 19.625 -45.453125 C 22 -45.453125 23.75 -45 24.875 -44.09375 C 26 -43.195312 26.5625 -41.96875 26.5625 -40.40625 C 26.5625 -39.5 26.421875 -38.617188 26.140625 -37.765625 L 22.8125 -26.9375 C 24.414062 -29.03125 26.109375 -30.484375 27.890625 -31.296875 C 29.671875 -32.117188 31.609375 -32.53125 33.703125 -32.53125 C 36.203125 -32.53125 38.21875 -31.769531 39.75 -30.25 C 41.289062 -28.738281 42.0625 -26.773438 42.0625 -24.359375 C 42.0625 -23.085938 41.859375 -21.835938 41.453125 -20.609375 Z M 37.703125 -8.484375 "/></g></g></g><g fill="#000000" fill-opacity="1"><g transform="translate(57.421926, 210.618814)"><g><path d="M 27.3125 -40.953125 C 28.164062 -40.953125 28.828125 -40.816406 29.296875 -40.546875 C 29.773438 -40.285156 30.015625 -39.910156 30.015625 -39.421875 C 30.015625 -39.210938 29.953125 -38.945312 29.828125 -38.625 C 29.703125 -38.332031 29.523438 -38.070312 29.296875 -37.84375 C 29.078125 -37.625 28.875 -37.460938 28.6875 -37.359375 C 28.5 -37.253906 28.367188 -37.160156 28.296875 -37.078125 C 27.640625 -36.710938 27.101562 -36.300781 26.6875 -35.84375 C 26.28125 -35.394531 25.929688 -34.703125 25.640625 -33.765625 L 18.203125 -7.25 C 18.035156 -6.71875 17.953125 -6.207031 17.953125 -5.71875 C 17.953125 -5.226562 18.023438 -4.816406 18.171875 -4.484375 C 18.316406 -4.160156 18.53125 -3.8125 18.8125 -3.4375 C 19.1875 -2.90625 19.375 -2.476562 19.375 -2.15625 C 19.375 -2.070312 19.332031 -1.863281 19.25 -1.53125 C 19.082031 -0.957031 18.710938 -0.554688 18.140625 -0.328125 C 17.566406 -0.109375 16.707031 0 15.5625 0 L 1.109375 0 C 0.242188 0 -0.421875 -0.140625 -0.890625 -0.421875 C -1.359375 -0.710938 -1.59375 -1.101562 -1.59375 -1.59375 C -1.59375 -1.84375 -1.535156 -2.113281 -1.421875 -2.40625 C -1.253906 -2.851562 -0.984375 -3.195312 -0.609375 -3.4375 C -0.242188 -3.6875 -0.0195312 -3.832031 0.0625 -3.875 C 0.71875 -4.28125 1.25 -4.695312 1.65625 -5.125 C 2.070312 -5.5625 2.421875 -6.269531 2.703125 -7.25 L 10.203125 -33.765625 C 10.367188 -34.296875 10.453125 -34.804688 10.453125 -35.296875 C 10.453125 -35.753906 10.378906 -36.132812 10.234375 -36.4375 C 10.097656 -36.75 9.90625 -37.109375 9.65625 -37.515625 C 9.289062 -38.046875 9.109375 -38.476562 9.109375 -38.8125 C 9.109375 -38.925781 9.144531 -39.148438 9.21875 -39.484375 C 9.382812 -40.015625 9.742188 -40.390625 10.296875 -40.609375 C 10.847656 -40.835938 11.703125 -40.953125 12.859375 -40.953125 Z M 27.3125 -40.953125 "/></g></g></g><g fill="#000000" fill-opacity="1"><g transform="translate(82.265126, 210.618814)"><g><path d="M 38.0625 -8.484375 C 37.988281 -8.316406 37.953125 -8.070312 37.953125 -7.75 C 37.953125 -7.457031 38.019531 -7.226562 38.15625 -7.0625 C 38.300781 -6.90625 38.5 -6.828125 38.75 -6.828125 C 39.238281 -6.828125 39.65625 -7.039062 40 -7.46875 C 40.351562 -7.90625 40.59375 -8.125 40.71875 -8.125 C 40.914062 -8.125 41.078125 -7.988281 41.203125 -7.71875 C 41.328125 -7.445312 41.390625 -7.128906 41.390625 -6.765625 C 41.429688 -5.578125 41.039062 -4.414062 40.21875 -3.28125 C 39.394531 -2.15625 38.191406 -1.234375 36.609375 -0.515625 C 35.035156 0.191406 33.144531 0.546875 30.9375 0.546875 C 28.226562 0.546875 26.070312 -0.078125 24.46875 -1.328125 C 22.875 -2.578125 22.054688 -4.242188 22.015625 -6.328125 C 22.015625 -7.847656 22.382812 -9.550781 23.125 -11.4375 L 26.5 -20.296875 C 26.707031 -20.828125 26.8125 -21.257812 26.8125 -21.59375 C 26.8125 -22.125 26.632812 -22.539062 26.28125 -22.84375 C 25.9375 -23.15625 25.519531 -23.3125 25.03125 -23.3125 C 24.125 -23.3125 23.257812 -22.890625 22.4375 -22.046875 C 21.625 -21.203125 21.03125 -20.164062 20.65625 -18.9375 L 16.84375 -6.390625 C 16.6875 -5.941406 16.609375 -5.515625 16.609375 -5.109375 C 16.609375 -4.609375 16.707031 -4.203125 16.90625 -3.890625 C 17.113281 -3.585938 17.40625 -3.273438 17.78125 -2.953125 C 18.0625 -2.703125 18.265625 -2.472656 18.390625 -2.265625 C 18.515625 -2.066406 18.535156 -1.820312 18.453125 -1.53125 C 18.285156 -1 17.894531 -0.609375 17.28125 -0.359375 C 16.664062 -0.117188 15.703125 0 14.390625 0 L 0.375 0 C -0.695312 0 -1.46875 -0.171875 -1.9375 -0.515625 C -2.40625 -0.867188 -2.578125 -1.332031 -2.453125 -1.90625 C -2.296875 -2.394531 -1.867188 -2.828125 -1.171875 -3.203125 C -0.554688 -3.523438 -0.046875 -3.910156 0.359375 -4.359375 C 0.773438 -4.816406 1.128906 -5.535156 1.421875 -6.515625 L 6.890625 -24.296875 C 6.972656 -24.492188 7.015625 -24.78125 7.015625 -25.15625 C 7.015625 -25.601562 6.921875 -25.945312 6.734375 -26.1875 C 6.546875 -26.4375 6.25 -26.75 5.84375 -27.125 C 5.4375 -27.445312 5.148438 -27.726562 4.984375 -27.96875 C 4.816406 -28.21875 4.796875 -28.550781 4.921875 -28.96875 C 5.160156 -29.90625 6.445312 -30.734375 8.78125 -31.453125 C 11.125 -32.171875 13.566406 -32.53125 16.109375 -32.53125 C 18.160156 -32.53125 19.78125 -31.96875 20.96875 -30.84375 C 22.15625 -29.71875 22.691406 -28.148438 22.578125 -26.140625 C 24.253906 -28.554688 26.035156 -30.222656 27.921875 -31.140625 C 29.804688 -32.066406 31.859375 -32.53125 34.078125 -32.53125 C 36.578125 -32.53125 38.59375 -31.769531 40.125 -30.25 C 41.664062 -28.738281 42.4375 -26.773438 42.4375 -24.359375 C 42.4375 -23.085938 42.226562 -21.835938 41.8125 -20.609375 Z M 38.0625 -8.484375 "/></g></g></g><g fill="#000000" fill-opacity="1"><g transform="translate(126.294172, 210.618814)"><g><path d="M 49.265625 -40.953125 C 51.515625 -40.953125 52.640625 -40.03125 52.640625 -38.1875 C 52.640625 -37.613281 52.519531 -36.894531 52.28125 -36.03125 L 50.796875 -31.0625 C 50.347656 -29.539062 49.796875 -28.472656 49.140625 -27.859375 C 48.484375 -27.242188 47.539062 -26.9375 46.3125 -26.9375 C 45.28125 -26.9375 44.488281 -27.203125 43.9375 -27.734375 C 43.382812 -28.265625 42.863281 -29.109375 42.375 -30.265625 L 41.328125 -32.78125 C 41.003906 -33.5625 40.65625 -34.09375 40.28125 -34.375 C 39.914062 -34.664062 39.34375 -34.8125 38.5625 -34.8125 L 37.140625 -34.8125 L 29.328125 -7.3125 C 29.210938 -6.78125 29.15625 -6.3125 29.15625 -5.90625 C 29.15625 -5.414062 29.222656 -5.003906 29.359375 -4.671875 C 29.503906 -4.347656 29.722656 -4 30.015625 -3.625 C 30.378906 -3.050781 30.5625 -2.582031 30.5625 -2.21875 C 30.5625 -2.132812 30.519531 -1.925781 30.4375 -1.59375 C 30.238281 -1.0625 29.835938 -0.671875 29.234375 -0.421875 C 28.640625 -0.179688 27.789062 -0.0625 26.6875 -0.0625 L 12.234375 -0.0625 C 11.378906 -0.0625 10.710938 -0.203125 10.234375 -0.484375 C 9.765625 -0.773438 9.53125 -1.1875 9.53125 -1.71875 C 9.53125 -1.96875 9.59375 -2.210938 9.71875 -2.453125 C 9.882812 -2.828125 10.078125 -3.101562 10.296875 -3.28125 C 10.523438 -3.46875 10.863281 -3.707031 11.3125 -4 C 11.925781 -4.363281 12.4375 -4.769531 12.84375 -5.21875 C 13.257812 -5.675781 13.613281 -6.375 13.90625 -7.3125 L 21.640625 -34.8125 L 20.234375 -34.8125 C 19.328125 -34.8125 18.585938 -34.664062 18.015625 -34.375 C 17.441406 -34.09375 16.828125 -33.5625 16.171875 -32.78125 L 14.140625 -30.265625 C 13.203125 -29.148438 12.289062 -28.316406 11.40625 -27.765625 C 10.53125 -27.210938 9.578125 -26.9375 8.546875 -26.9375 C 7.609375 -26.9375 6.867188 -27.179688 6.328125 -27.671875 C 5.796875 -28.160156 5.53125 -28.835938 5.53125 -29.703125 C 5.53125 -30.109375 5.59375 -30.5625 5.71875 -31.0625 L 7.3125 -36.65625 C 7.644531 -37.800781 8.015625 -38.671875 8.421875 -39.265625 C 8.835938 -39.859375 9.421875 -40.285156 10.171875 -40.546875 C 10.929688 -40.816406 12.007812 -40.953125 13.40625 -40.953125 Z M 49.265625 -40.953125 "/></g></g></g><g fill="#000000" fill-opacity="1"><g transform="translate(172.967412, 210.618814)"><g><path d="M 23.796875 -32.53125 C 29.378906 -32.53125 33.488281 -31.398438 36.125 -29.140625 C 38.769531 -26.890625 40.09375 -23.941406 40.09375 -20.296875 C 40.09375 -19.066406 39.929688 -17.691406 39.609375 -16.171875 C 38.828125 -12.804688 37.367188 -9.863281 35.234375 -7.34375 C 33.109375 -4.820312 30.492188 -2.875 27.390625 -1.5 C 24.296875 -0.132812 20.945312 0.546875 17.34375 0.546875 C 11.644531 0.546875 7.429688 -0.585938 4.703125 -2.859375 C 1.972656 -5.128906 0.609375 -8.15625 0.609375 -11.9375 C 0.609375 -13.207031 0.773438 -14.617188 1.109375 -16.171875 C 1.890625 -19.367188 3.375 -22.207031 5.5625 -24.6875 C 7.757812 -27.164062 10.445312 -29.09375 13.625 -30.46875 C 16.800781 -31.84375 20.191406 -32.53125 23.796875 -32.53125 Z M 23.609375 -27.0625 C 22.753906 -27.0625 21.84375 -26.289062 20.875 -24.75 C 19.914062 -23.21875 18.78125 -20.316406 17.46875 -16.046875 C 16.15625 -11.785156 15.5 -8.796875 15.5 -7.078125 C 15.5 -6.171875 15.640625 -5.5625 15.921875 -5.25 C 16.210938 -4.945312 16.601562 -4.796875 17.09375 -4.796875 C 17.957031 -4.710938 18.847656 -5.445312 19.765625 -7 C 20.691406 -8.5625 21.851562 -11.597656 23.25 -16.109375 C 24.519531 -20.085938 25.15625 -22.976562 25.15625 -24.78125 C 25.15625 -25.644531 25.019531 -26.238281 24.75 -26.5625 C 24.488281 -26.894531 24.109375 -27.0625 23.609375 -27.0625 Z M 23.609375 -27.0625 "/></g></g></g><g fill="#000000" fill-opacity="1"><g transform="translate(213.30687, 210.618814)"><g><path d="M 36.53125 -8.484375 C 36.445312 -8.160156 36.40625 -7.914062 36.40625 -7.75 C 36.40625 -7.457031 36.476562 -7.226562 36.625 -7.0625 C 36.769531 -6.90625 36.960938 -6.828125 37.203125 -6.828125 C 37.703125 -6.828125 38.125 -7.039062 38.46875 -7.46875 C 38.8125 -7.90625 39.046875 -8.125 39.171875 -8.125 C 39.378906 -8.125 39.550781 -7.988281 39.6875 -7.71875 C 39.832031 -7.445312 39.90625 -7.128906 39.90625 -6.765625 C 39.945312 -5.617188 39.535156 -4.476562 38.671875 -3.34375 C 37.816406 -2.21875 36.609375 -1.285156 35.046875 -0.546875 C 33.492188 0.179688 31.753906 0.546875 29.828125 0.546875 C 27.410156 0.546875 25.484375 0.0546875 24.046875 -0.921875 C 22.609375 -1.910156 21.6875 -3.203125 21.28125 -4.796875 C 19.800781 -3.160156 18.171875 -1.921875 16.390625 -1.078125 C 14.609375 -0.234375 12.796875 0.1875 10.953125 0.1875 C 8.078125 0.1875 5.664062 -0.519531 3.71875 -1.9375 C 1.769531 -3.351562 0.796875 -5.332031 0.796875 -7.875 C 0.796875 -9.019531 1.003906 -10.207031 1.421875 -11.4375 L 5.34375 -24.296875 C 5.46875 -24.660156 5.53125 -24.96875 5.53125 -25.21875 C 5.53125 -25.664062 5.425781 -26.019531 5.21875 -26.28125 C 5.019531 -26.550781 4.71875 -26.832031 4.3125 -27.125 C 3.894531 -27.445312 3.601562 -27.726562 3.4375 -27.96875 C 3.28125 -28.21875 3.257812 -28.550781 3.375 -28.96875 C 3.625 -29.90625 4.914062 -30.734375 7.25 -31.453125 C 9.59375 -32.171875 12.035156 -32.53125 14.578125 -32.53125 C 16.953125 -32.53125 18.691406 -32.078125 19.796875 -31.171875 C 20.910156 -30.273438 21.46875 -29.046875 21.46875 -27.484375 C 21.46875 -26.546875 21.320312 -25.644531 21.03125 -24.78125 L 17.15625 -12 C 16.988281 -11.539062 16.90625 -11.109375 16.90625 -10.703125 C 16.90625 -10.128906 17.066406 -9.695312 17.390625 -9.40625 C 17.722656 -9.125 18.160156 -8.984375 18.703125 -8.984375 C 19.472656 -8.984375 20.101562 -9.207031 20.59375 -9.65625 C 21.09375 -10.101562 21.585938 -10.863281 22.078125 -11.9375 L 25.828125 -24.296875 C 25.953125 -24.660156 26.015625 -24.96875 26.015625 -25.21875 C 26.015625 -25.664062 25.910156 -26.019531 25.703125 -26.28125 C 25.503906 -26.550781 25.21875 -26.832031 24.84375 -27.125 C 24.4375 -27.445312 24.148438 -27.726562 23.984375 -27.96875 C 23.816406 -28.21875 23.796875 -28.550781 23.921875 -28.96875 C 24.128906 -29.90625 25.398438 -30.734375 27.734375 -31.453125 C 30.066406 -32.171875 32.507812 -32.53125 35.0625 -32.53125 C 37.4375 -32.53125 39.1875 -32.078125 40.3125 -31.171875 C 41.4375 -30.273438 42 -29.066406 42 -27.546875 C 42 -26.773438 41.835938 -25.851562 41.515625 -24.78125 Z M 36.53125 -8.484375 "/></g></g></g><g fill="#000000" fill-opacity="1"><g transform="translate(255.491111, 210.618814)"><g><path d="M 22.328125 -32.84375 C 24.828125 -32.84375 27.019531 -32.484375 28.90625 -31.765625 C 30.789062 -31.046875 32.253906 -30.0625 33.296875 -28.8125 C 34.347656 -27.5625 34.875 -26.175781 34.875 -24.65625 C 34.875 -23.019531 34.304688 -21.664062 33.171875 -20.59375 C 32.046875 -19.53125 30.519531 -19 28.59375 -19 C 26.625 -19 25.085938 -19.5 23.984375 -20.5 C 22.878906 -21.507812 22.328125 -22.875 22.328125 -24.59375 C 22.328125 -25.414062 22.445312 -26.28125 22.6875 -27.1875 C 20.96875 -26.726562 19.441406 -25.832031 18.109375 -24.5 C 16.773438 -23.175781 15.882812 -21.425781 15.4375 -19.25 C 15.1875 -18.019531 15.0625 -16.910156 15.0625 -15.921875 C 15.0625 -13.710938 15.675781 -12.03125 16.90625 -10.875 C 18.132812 -9.726562 19.898438 -9.15625 22.203125 -9.15625 C 23.515625 -9.15625 24.640625 -9.289062 25.578125 -9.5625 C 26.523438 -9.832031 27.488281 -10.191406 28.46875 -10.640625 C 29.289062 -11.046875 29.890625 -11.25 30.265625 -11.25 C 30.503906 -11.25 30.664062 -11.195312 30.75 -11.09375 C 30.832031 -11 30.875 -10.785156 30.875 -10.453125 C 30.914062 -8.929688 30.289062 -7.34375 29 -5.6875 C 27.707031 -4.03125 25.921875 -2.632812 23.640625 -1.5 C 21.367188 -0.375 18.816406 0.1875 15.984375 0.1875 C 13.035156 0.1875 10.421875 -0.351562 8.140625 -1.4375 C 5.867188 -2.53125 4.109375 -4.085938 2.859375 -6.109375 C 1.609375 -8.140625 0.984375 -10.507812 0.984375 -13.21875 C 0.984375 -14.488281 1.144531 -15.90625 1.46875 -17.46875 C 2.582031 -22.550781 5.035156 -26.382812 8.828125 -28.96875 C 12.617188 -31.550781 17.117188 -32.84375 22.328125 -32.84375 Z M 22.328125 -32.84375 "/></g></g></g><g fill="#000000" fill-opacity="1"><g transform="translate(288.82036, 210.618814)"><g><path d="M 37.703125 -8.484375 C 37.617188 -8.316406 37.578125 -8.070312 37.578125 -7.75 C 37.578125 -7.457031 37.644531 -7.226562 37.78125 -7.0625 C 37.925781 -6.90625 38.125 -6.828125 38.375 -6.828125 C 38.863281 -6.828125 39.28125 -7.039062 39.625 -7.46875 C 39.976562 -7.90625 40.21875 -8.125 40.34375 -8.125 C 40.550781 -8.125 40.710938 -7.988281 40.828125 -7.71875 C 40.953125 -7.445312 41.015625 -7.128906 41.015625 -6.765625 C 41.054688 -5.578125 40.664062 -4.414062 39.84375 -3.28125 C 39.03125 -2.15625 37.832031 -1.234375 36.25 -0.515625 C 34.675781 0.191406 32.78125 0.546875 30.5625 0.546875 C 27.851562 0.546875 25.695312 -0.078125 24.09375 -1.328125 C 22.5 -2.578125 21.679688 -4.242188 21.640625 -6.328125 C 21.640625 -7.847656 22.007812 -9.550781 22.75 -11.4375 L 26.140625 -20.296875 C 26.335938 -20.828125 26.4375 -21.257812 26.4375 -21.59375 C 26.4375 -22.125 26.265625 -22.539062 25.921875 -22.84375 C 25.578125 -23.15625 25.15625 -23.3125 24.65625 -23.3125 C 23.882812 -23.3125 23.097656 -22.953125 22.296875 -22.234375 C 21.492188 -21.515625 20.847656 -20.351562 20.359375 -18.75 L 20.359375 -18.875 L 16.484375 -6.390625 C 16.359375 -5.898438 16.296875 -5.472656 16.296875 -5.109375 C 16.296875 -4.578125 16.394531 -4.15625 16.59375 -3.84375 C 16.800781 -3.53125 17.09375 -3.234375 17.46875 -2.953125 C 17.75 -2.660156 17.953125 -2.421875 18.078125 -2.234375 C 18.203125 -2.054688 18.222656 -1.820312 18.140625 -1.53125 C 17.929688 -1 17.519531 -0.609375 16.90625 -0.359375 C 16.289062 -0.117188 15.347656 0 14.078125 0 L 0.0625 0 C -1 0 -1.773438 -0.171875 -2.265625 -0.515625 C -2.765625 -0.867188 -2.929688 -1.332031 -2.765625 -1.90625 C -2.597656 -2.394531 -2.164062 -2.828125 -1.46875 -3.203125 C -0.851562 -3.523438 -0.34375 -3.910156 0.0625 -4.359375 C 0.46875 -4.816406 0.816406 -5.535156 1.109375 -6.515625 L 10.453125 -37.203125 C 10.578125 -37.578125 10.640625 -37.882812 10.640625 -38.125 C 10.640625 -38.582031 10.523438 -38.953125 10.296875 -39.234375 C 10.078125 -39.523438 9.78125 -39.8125 9.40625 -40.09375 C 9 -40.425781 8.703125 -40.710938 8.515625 -40.953125 C 8.328125 -41.203125 8.296875 -41.53125 8.421875 -41.9375 C 8.671875 -42.882812 9.960938 -43.707031 12.296875 -44.40625 C 14.640625 -45.101562 17.082031 -45.453125 19.625 -45.453125 C 22 -45.453125 23.75 -45 24.875 -44.09375 C 26 -43.195312 26.5625 -41.96875 26.5625 -40.40625 C 26.5625 -39.5 26.421875 -38.617188 26.140625 -37.765625 L 22.8125 -26.9375 C 24.414062 -29.03125 26.109375 -30.484375 27.890625 -31.296875 C 29.671875 -32.117188 31.609375 -32.53125 33.703125 -32.53125 C 36.203125 -32.53125 38.21875 -31.769531 39.75 -30.25 C 41.289062 -28.738281 42.0625 -26.773438 42.0625 -24.359375 C 42.0625 -23.085938 41.859375 -21.835938 41.453125 -20.609375 Z M 37.703125 -8.484375 "/></g></g></g></svg>